<svg id="Lag_1" data-name="Lag 1" xmlns="http://www.w3.org/2000/svg" viewBox="0 0 122.78 80.59"><defs><style>.cls-1{fill:none;}.cls-1,.cls-2{stroke:#000;stroke-miterlimit:10;stroke-width:2px;}.cls-2{fill:#fff;}</style></defs><title>behandlinger</title><rect class="cls-1" x="110.66" y="36.21" width="8.43" height="43.38"/><rect class="cls-1" x="3.41" y="36.21" width="8.43" height="43.38"/><rect class="cls-1" x="1" y="32.6" width="120.5" height="3.62"/><path class="cls-2" d="M878.63,560.92s-2.41-9.64-6-9.64H844.89s-2.41-7.23-9.64-7.23H787s-3.62,2.41-3.62,8.43v15.66L776.2,579s-2.41,8.44,6,3.62l9.64-14.46v-7.23Z" transform="translate(-757.13 -528.32)"/><ellipse class="cls-2" cx="14.86" cy="24.16" rx="10.24" ry="9.64"/><path class="cls-2" d="M796.69,544.05v-6.79a2.72,2.72,0,0,1,5.43,0v6.79Z" transform="translate(-757.13 -528.32)"/><path class="cls-1" d="M797.35,535.41s.7-4.93,2.05-4.93,1.86,4.73,1.86,4.73" transform="translate(-757.13 -528.32)"/><line class="cls-1" x1="42.28" y1="0.12" x2="42.28" y2="2.15"/><path class="cls-2" d="M805.57,543.94v-6.79a2.72,2.72,0,1,1,5.43,0v6.79Z" transform="translate(-757.13 -528.32)"/><path class="cls-1" d="M806.23,535.29s.7-4.93,2.05-4.93,1.86,4.73,1.86,4.73" transform="translate(-757.13 -528.32)"/><line class="cls-1" x1="51.16" x2="51.16" y2="2.04"/></svg>