<svg id="Lag_1" data-name="Lag 1" xmlns="http://www.w3.org/2000/svg" viewBox="0 0 121.25 78.2"><defs><style>.cls-1{fill:none;}.cls-1,.cls-2{stroke:#000;stroke-miterlimit:10;stroke-width:0.75px;}.cls-2{fill:#fff;}</style></defs><title>behandling</title><rect class="cls-1" x="110.03" y="34.45" width="8.44" height="43.38"/><rect class="cls-1" x="2.78" y="34.45" width="8.44" height="43.38"/><rect class="cls-1" x="0.38" y="30.83" width="120.5" height="3.62"/><path class="cls-2" d="M1019.78,531.5c0-.42-6-10-6-10H984s-2.33-7-9.33-7H928s-3.5,2.33-3.5,8.17v15.65l-7.15,10.84s-2.41,8.44,6,3.62l9.12-14.46V531.5Z" transform="translate(-898.9 -500.25)"/><ellipse class="cls-2" cx="14.23" cy="22.4" rx="10.24" ry="9.64"/><path class="cls-2" d="M937.84,514.21v-6a2.41,2.41,0,1,1,4.82,0v6Z" transform="translate(-898.9 -500.25)"/><path class="cls-1" d="M938.42,506.54s.62-4.38,1.82-4.38,1.65,4.2,1.65,4.2" transform="translate(-898.9 -500.25)"/><line class="cls-1" x1="41.35" y1="0.1" x2="41.35" y2="1.91"/><path class="cls-2" d="M945.72,514.11v-6a2.41,2.41,0,1,1,4.82,0v6Z" transform="translate(-898.9 -500.25)"/><path class="cls-1" d="M946.31,506.44s.62-4.38,1.82-4.38,1.65,4.2,1.65,4.2" transform="translate(-898.9 -500.25)"/><line class="cls-1" x1="49.23" x2="49.23" y2="1.81"/></svg>