<svg id="Layer_1" data-name="Layer 1" xmlns="http://www.w3.org/2000/svg" viewBox="0 0 211.01 1080.37"><defs><style>.cls-1{fill:none;stroke:#000;stroke-miterlimit:10;stroke-width:11px;}</style></defs><title>DNAstring</title><path d="M1066,5c0,11.07-1.09,38.36-10.09,75.69-10.69,44.38-35.13,111.84-90.82,181.21-54.38,67.74-78.41,139.72-89,188.17-11.45,52.44-10,89.12-10,89.48v.47c0,.37-1.4,37.34,10.11,89.85,10.6,48.36,34.63,120.19,88.91,187.8,55.69,69.36,80.13,136.83,90.82,181.21,11.63,48.27,10.05,79.77,10,81.09l-11-.61c0-.31,1.54-31.55-9.8-78.37-10.46-43.17-34.32-108.83-88.59-176.43-55.72-69.4-80.33-143.11-91.16-192.71-11.4-52.2-10.41-88.52-10.28-92.06-.13-3.55-1.12-39.86,10.28-92.06,10.83-49.61,35.44-123.31,91.16-192.71,54.27-67.6,78.13-133.25,88.59-176.43,11.34-46.83,9.82-78.07,9.8-78.38l11-.61C1065.91-.07,1066,1.79,1066,5Z" transform="translate(-854.99 0.37)"/><path class="cls-1" d="M860.57-.06S854.23,148.53,960.8,281.27s99.59,258.55,99.59,258.55,7,125.81-99.59,258.55S860.57,1079.7,860.57,1079.7" transform="translate(-854.99 0.37)"/><path d="M889.57,645.84h136q1.86-5.65,3.46-11H886.8Q888.07,640.18,889.57,645.84Z" transform="translate(-854.99 0.37)"/><path d="M930.76,748.87h45q3.6-5.53,6.94-11H924.9Q927.72,743.34,930.76,748.87Z" transform="translate(-854.99 0.37)"/><path d="M1044,534.17c0-.7,0-1.49,0-2.35H875c0,.84,0,1.62,0,2.31,0,2.63.05,4,.05,4l0,.65,0,.65h0s0,1.18,0,3.35h169c0-1.76,0-2.83-.06-3.19l0-.82.05-.88h0S1044,536.62,1044,534.17Z" transform="translate(-854.99 0.37)"/><path d="M906.53,697.36h98.26q2.67-5.57,5.1-11H902.34Q904.33,691.79,906.53,697.36Z" transform="translate(-854.99 0.37)"/><path d="M877.67,493.79h162.9q-.8-5.25-1.85-11H879.13Q878.29,488.53,877.67,493.79Z" transform="translate(-854.99 0.37)"/><path d="M947.21,236.43l9.27.09q4.14-5.48,8-10.93l-24.26-.23Q943.6,230.89,947.21,236.43Z" transform="translate(-854.99 0.37)"/><path d="M1034.39,75.26c.33-1.37.65-2.73,1-4.07H881.79q1,5.36,2.15,11h148.69C1033.25,79.82,1033.84,77.51,1034.39,75.26Z" transform="translate(-854.99 0.37)"/><path d="M918.58,185.21h71.69q3.15-5.55,6.05-11H913.53Q915.95,179.67,918.58,185.21Z" transform="translate(-854.99 0.37)"/><path d="M876.3,30.68h166c.45-4,.78-7.69,1-11H875.51C875.7,23,876,26.68,876.3,30.68Z" transform="translate(-854.99 0.37)"/><path d="M1015.53,133.27q2.29-5.61,4.31-11l-125.5.4q1.65,5.4,3.51,11Z" transform="translate(-854.99 0.37)"/><path d="M879,593.84H1038.9q1-5.75,1.82-11H877.55Q878.17,588.09,879,593.84Z" transform="translate(-854.99 0.37)"/><path d="M990.26,892.4H918.59q-2.63,5.54-5,11h82.76Q993.4,897.95,990.26,892.4Z" transform="translate(-854.99 0.37)"/><path d="M1034.39,1002.37c-.55-2.25-1.14-4.58-1.76-6.95H883.95q-1.18,5.64-2.15,11h153.55C1035,1005.09,1034.72,1003.74,1034.39,1002.37Z" transform="translate(-854.99 0.37)"/><path d="M1015.17,943.48l-117.27.37q-1.87,5.6-3.52,11l125.12-.4Q1017.45,949.07,1015.17,943.48Z" transform="translate(-854.99 0.37)"/><path d="M956.31,840.89h-8.9q-3.59,5.5-6.94,11h23.91Q960.47,846.41,956.31,840.89Z" transform="translate(-854.99 0.37)"/><path d="M876.3,1046.94c-.35,4-.61,7.68-.79,11h167.83c-.24-3.31-.57-7-1-11Z" transform="translate(-854.99 0.37)"/><path d="M889.58,431.77q-1.5,5.65-2.77,11H1029q-1.6-5.35-3.46-11Z" transform="translate(-854.99 0.37)"/><path d="M975.78,328.75h-45q-3,5.52-5.86,11h57.81Q979.37,334.28,975.78,328.75Z" transform="translate(-854.99 0.37)"/><path d="M1004.78,380.26H906.54q-2.2,5.57-4.19,11h107.53Q1007.45,385.83,1004.78,380.26Z" transform="translate(-854.99 0.37)"/></svg>