<svg id="Lag_1" data-name="Lag 1" xmlns="http://www.w3.org/2000/svg" viewBox="0 0 107.7 118.19"><defs><style>.cls-1{fill:none;}.cls-1,.cls-2{stroke:#000;stroke-miterlimit:10;stroke-width:2px;}.cls-2{fill:#fff;}</style></defs><title>fysisktest</title><path class="cls-1" d="M925.33,583.76h65s-3-18-33-18S925.33,583.76,925.33,583.76Z" transform="translate(-905.82 -480.57)"/><path class="cls-1" d="M925.33,583.76s-8,3-10,14h86s-2-11-11-14" transform="translate(-905.82 -480.57)"/><line class="cls-1" x1="52.52" y1="23.19" x2="52.52" y2="85.19"/><line class="cls-1" x1="9.52" y1="1.19" x2="95.52" y2="33.19"/><circle class="cls-2" cx="52.52" cy="17.19" r="6"/><path class="cls-1" d="M915.45,481.67l-6.6,24.08H924l-8.25-24.09A.14.14,0,0,0,915.45,481.67Z" transform="translate(-905.82 -480.57)"/><path class="cls-1" d="M926.33,505.76h-19s3,7,10,7S926.33,505.76,926.33,505.76Z" transform="translate(-905.82 -480.57)"/><path class="cls-1" d="M1001.31,513.67l-6.6,24.08h15.11l-8.25-24.09A.14.14,0,0,0,1001.31,513.67Z" transform="translate(-905.82 -480.57)"/><path class="cls-1" d="M1012.19,537.76h-19s3,7,10,7S1012.19,537.76,1012.19,537.76Z" transform="translate(-905.82 -480.57)"/></svg>