<svg id="Lag_1" data-name="Lag 1" xmlns="http://www.w3.org/2000/svg" viewBox="0 0 125 133.4"><defs><style>.cls-1{fill:none;stroke:#000;stroke-miterlimit:10;stroke-width:2px;}</style></defs><title>hjerne</title><path class="cls-1" d="M936.67,514h43a6,6,0,0,1,6,6v43" transform="translate(-897.17 -472.96)"/><polyline class="cls-1" points="47.37 41 47 25 33 12"/><polyline class="cls-1" points="64 41 64 22 60 17 78 4"/><line class="cls-1" x1="55.03" y1="41" x2="55" y2="26"/><line class="cls-1" x1="74.95" y1="41" x2="75" y2="24"/><polyline class="cls-1" points="85 41 88 24 91 11"/><line class="cls-1" x1="88.5" y1="45.69" x2="98" y2="35"/><polyline class="cls-1" points="88.5 52.07 110 47 112 32"/><line class="cls-1" x1="88" y1="59" x2="103" y2="59"/><polyline class="cls-1" points="88.5 67.14 110 67 121 78"/><line class="cls-1" x1="88.5" y1="74.8" x2="107" y2="74"/><polyline class="cls-1" points="88.5 83.22 105 83 109 87"/><circle class="cls-1" cx="32.5" cy="10.5" r="1.5"/><circle class="cls-1" cx="122.5" cy="78.5" r="1.5"/><circle class="cls-1" cx="112.5" cy="30.5" r="1.5"/><circle class="cls-1" cx="1005.67" cy="561.46" r="1.5" transform="translate(-1043.17 105.09) rotate(-30)"/><circle class="cls-1" cx="78.5" cy="2.5" r="1.5"/><circle class="cls-1" cx="91.5" cy="9.5" r="1.5"/><path class="cls-1" d="M982.67,565.37h-43a6,6,0,0,1-6-6v-43" transform="translate(-897.17 -472.96)"/><polyline class="cls-1" points="77.63 92.41 78 108.41 92 121.41"/><polyline class="cls-1" points="61 92.41 61 111.41 65 116.41 47 129.41"/><line class="cls-1" x1="69.97" y1="92.4" x2="70" y2="107.4"/><line class="cls-1" x1="50.05" y1="92.4" x2="50" y2="109.4"/><polyline class="cls-1" points="40 92.41 37 109.41 34 122.41"/><line class="cls-1" x1="36.5" y1="87.71" x2="27" y2="98.4"/><polyline class="cls-1" points="36.5 81.33 15 86.41 13 101.41"/><line class="cls-1" x1="37" y1="74.4" x2="22" y2="74.4"/><polyline class="cls-1" points="36.5 66.27 15 66.41 4 55.41"/><line class="cls-1" x1="36.5" y1="58.61" x2="18" y2="59.4"/><polyline class="cls-1" points="36.5 50.18 20 50.41 16 46.41"/><circle class="cls-1" cx="92.5" cy="122.9" r="1.5"/><circle class="cls-1" cx="2.5" cy="54.9" r="1.5"/><circle class="cls-1" cx="12.5" cy="102.9" r="1.5"/><circle class="cls-1" cx="913.67" cy="517.87" r="1.5" transform="translate(-1033.69 53.25) rotate(-30)"/><circle class="cls-1" cx="46.5" cy="130.9" r="1.5"/><circle class="cls-1" cx="33.5" cy="123.9" r="1.5"/><path class="cls-1" d="M959.67,531.46v22s-8,7-9-6" transform="translate(-897.17 -472.96)"/><path class="cls-1" d="M950.87,549.29s-8.21,1.17-5.21-6.83a6.79,6.79,0,0,1-3.5-8.5" transform="translate(-897.17 -472.96)"/><path class="cls-1" d="M943.17,535s-6-7,2-9" transform="translate(-897.17 -472.96)"/><path class="cls-1" d="M945.17,527s2-9,12-4" transform="translate(-897.17 -472.96)"/><path class="cls-1" d="M959.17,531.46v22s8,7,9-6" transform="translate(-897.17 -472.96)"/><path class="cls-1" d="M968,549.29s8.21,1.17,5.21-6.83a6.79,6.79,0,0,0,3.5-8.5" transform="translate(-897.17 -472.96)"/><path class="cls-1" d="M975.67,535s6-7-2-9" transform="translate(-897.17 -472.96)"/><path class="cls-1" d="M973.67,527s-2-9-12-4" transform="translate(-897.17 -472.96)"/><path class="cls-1" d="M956.17,524s3-4,6,0" transform="translate(-897.17 -472.96)"/><path class="cls-1" d="M959.17,535.7s-3-4.73-7-4.73" transform="translate(-897.17 -472.96)"/><path class="cls-1" d="M955.17,531.83a9.48,9.48,0,0,1-3,6.14" transform="translate(-897.17 -472.96)"/><path class="cls-1" d="M959.17,546.36s-2-3.39-9-3.39" transform="translate(-897.17 -472.96)"/><path class="cls-1" d="M959.67,537.68s9.5-.71,7.5-8.71" transform="translate(-897.17 -472.96)"/><path class="cls-1" d="M966,534.9s4.16,4.07,6.16,2.07" transform="translate(-897.17 -472.96)"/><path class="cls-1" d="M959.67,540.49s5.5-.52,7.5,2.48" transform="translate(-897.17 -472.96)"/></svg>